<?xml version="1.0" standalone="no"?>
<!DOCTYPE svg PUBLIC "-//W3C//DTD SVG 20010904//EN"
 "http://www.w3.org/TR/2001/REC-SVG-20010904/DTD/svg10.dtd">
<svg version="1.0" xmlns="http://www.w3.org/2000/svg"
 width="408.000000pt" height="408.000000pt" viewBox="0 0 408.000000 408.000000"
 preserveAspectRatio="xMidYMid meet">
<metadata>
Created by potrace 1.11, written by Peter Selinger 2001-2013
</metadata>
<g transform="translate(0.000000,408.000000) scale(0.100000,-0.100000)"
fill="#000000" stroke="none">
<path d="M1610 4038 c-58 -16 -114 -31 -125 -33 -11 -2 -35 -8 -53 -13 -18 -6
-33 -11 -35 -11 -18 2 -60 -17 -67 -30 -5 -10 -9 -110 -8 -224 0 -227 -3 -239
-58 -267 -16 -8 -47 -25 -68 -39 -22 -13 -49 -23 -61 -23 -11 0 -106 43 -209
96 -104 53 -197 96 -207 96 -20 0 -19 1 -174 -164 -60 -64 -114 -125 -118
-135 -10 -22 1 -44 107 -206 99 -151 116 -181 116 -205 0 -23 -74 -166 -99
-193 -10 -10 -37 -19 -66 -22 -28 -2 -75 -7 -105 -10 -30 -4 -75 -8 -100 -10
-60 -5 -139 -14 -171 -21 -22 -4 -29 -14 -39 -52 -14 -55 -21 -89 -25 -117 -2
-11 -4 -20 -5 -20 -3 0 -19 -102 -26 -165 -3 -25 -7 -50 -9 -56 -3 -9 28 -31
55 -39 7 -2 81 -36 175 -80 97 -45 127 -58 138 -59 19 -2 57 -50 58 -75 1 -14
3 -35 5 -46 1 -11 6 -52 9 -91 8 -86 17 -75 -193 -243 -83 -66 -153 -127 -153
-134 -2 -21 2 -41 16 -72 7 -16 36 -86 66 -155 29 -69 57 -131 63 -139 10 -13
81 -11 166 3 46 8 170 27 205 31 11 1 21 3 23 5 5 5 49 3 68 -4 12 -3 42 -32
67 -64 25 -31 57 -70 71 -87 14 -16 26 -32 27 -35 0 -3 2 -13 4 -24 2 -10 -26
-105 -61 -210 -36 -105 -63 -202 -62 -216 2 -20 34 -46 153 -127 83 -56 160
-102 172 -102 23 -1 54 22 167 124 89 80 165 144 181 152 25 13 30 12 153 -26
91 -29 131 -49 133 -69 3 -29 89 -365 101 -395 12 -32 -3 -30 220 -32 209 -3
207 -3 233 105 0 3 11 39 24 80 13 41 25 86 28 99 2 13 8 31 12 40 5 9 9 19
10 24 1 4 1 8 2 10 0 1 2 10 4 21 8 39 27 74 48 84 18 8 115 42 137 47 63 15
81 16 99 3 12 -8 82 -73 157 -144 74 -71 146 -133 159 -138 24 -9 33 -7 92 28
13 7 32 21 43 31 11 10 20 15 20 11 0 -4 6 -1 14 6 7 7 52 38 100 68 55 35 89
63 92 77 3 12 -3 51 -15 87 -12 36 -23 73 -24 83 -2 10 -7 25 -10 33 -23 58
-66 232 -60 247 8 22 40 62 99 124 49 52 56 53 199 22 17 -3 39 -7 50 -9 11
-1 20 -3 20 -4 0 -1 11 -3 25 -6 14 -2 36 -6 50 -8 22 -4 105 -17 120 -18 32
-3 43 8 71 70 17 37 42 90 55 117 54 118 84 189 84 200 0 14 -78 87 -253 236
-99 84 -98 81 -84 194 9 80 22 99 85 125 32 13 75 31 97 40 22 9 88 36 148 60
123 50 117 40 102 170 -7 63 -13 104 -21 158 -3 20 -7 53 -10 72 -11 92 -22
104 -104 114 -19 3 -51 7 -70 10 -43 7 -105 16 -145 21 -163 20 -166 21 -200
97 -42 93 -41 106 4 168 22 30 50 69 61 85 122 173 150 216 150 229 0 15 -55
92 -94 131 -11 12 -54 63 -95 113 -41 51 -85 95 -97 98 -21 5 -50 -6 -199 -76
-150 -71 -202 -92 -227 -92 -32 1 -133 68 -146 97 -5 11 -7 45 -6 75 8 148 15
297 14 310 0 8 0 26 0 39 0 13 -5 30 -11 37 -9 11 -282 108 -299 107 -3 0 -16
4 -30 9 -14 6 -40 14 -58 18 -41 10 -35 17 -151 -165 -49 -77 -94 -145 -100
-152 -6 -7 -11 -16 -11 -21 0 -5 -9 -17 -21 -28 -20 -18 -35 -19 -169 -11 -19
2 -36 19 -72 72 -26 39 -47 73 -47 78 -1 4 -21 40 -45 80 -24 39 -51 86 -59
102 -44 80 -52 82 -197 43z"/>
</g>
</svg>
